<?xml version="1.0" standalone="no"?>
<!DOCTYPE svg PUBLIC "-//W3C//DTD SVG 20010904//EN"
 "http://www.w3.org/TR/2001/REC-SVG-20010904/DTD/svg10.dtd">
<svg version="1.0" xmlns="http://www.w3.org/2000/svg"
 width="677.000000pt" height="369.000000pt" viewBox="0 0 677.000000 369.000000"
 preserveAspectRatio="xMidYMid meet">

<g transform="translate(0.000000,369.000000) scale(0.100000,-0.100000)"
fill="#000000" stroke="none">
<path d="M2395 3330 c-4 -6 -11 -7 -17 -4 -6 4 -8 -1 -6 -12 3 -17 15 -19 108
-22 72 -1 100 1 90 8 -8 5 -29 10 -46 10 -19 0 -34 6 -38 15 -6 17 -81 21 -91
5z"/>
<path d="M2346 3322 c-4 -7 -16 -12 -27 -12 -14 0 -18 -4 -13 -12 5 -9 2 -9
-9 1 -12 9 -21 10 -29 3 -13 -10 -19 -12 -38 -12 -5 0 -10 -5 -10 -11 0 -5 5
-7 12 -3 7 4 8 3 4 -4 -4 -7 -18 -9 -32 -6 -15 4 -24 2 -24 -6 0 -6 -4 -9 -9
-5 -6 3 -29 -13 -53 -36 -24 -23 -53 -49 -66 -60 -23 -18 -82 -93 -82 -105 0
-3 -8 -18 -18 -32 -10 -15 -28 -61 -40 -102 -22 -75 -22 -77 -22 -1086 0 -998
0 -1013 21 -1080 58 -192 222 -345 414 -388 74 -16 156 -17 1080 -14 550 2
1011 7 1025 12 14 4 44 11 67 15 24 4 51 14 60 22 10 9 30 20 46 27 50 21 180
149 173 169 -3 7 2 13 10 13 8 0 12 5 9 10 -3 6 -2 10 3 10 13 0 52 91 56 130
1 20 8 45 14 57 10 18 9 24 -5 33 -17 11 -17 11 0 6 16 -5 17 22 16 477 -1
265 -5 471 -9 457 -7 -22 -8 -20 -9 14 -1 32 -3 37 -15 27 -17 -14 -19 -74 -2
-64 6 4 6 0 -1 -8 -9 -12 -13 -133 -13 -493 -1 -416 -3 -482 -17 -502 -12 -20
-13 -27 -3 -39 11 -13 10 -15 -1 -10 -9 3 -22 -12 -38 -43 -12 -26 -17 -41
-10 -35 19 18 33 16 15 -2 -8 -8 -19 -15 -24 -15 -13 0 -82 -85 -82 -102 0
-10 -2 -10 -8 -1 -5 8 -18 3 -42 -20 -20 -18 -42 -33 -50 -35 -8 -2 -44 -16
-79 -33 l-63 -29 -1027 0 c-718 0 -1038 3 -1066 11 -196 55 -356 225 -385 409
-13 89 -13 1963 0 2048 12 70 57 166 104 220 17 20 24 32 16 27 -8 -4 -5 2 8
14 12 12 22 26 22 32 0 6 -8 6 -22 -1 -22 -11 -22 -10 -4 4 14 12 23 13 33 5
10 -9 21 -4 47 19 19 17 44 33 55 37 12 3 21 11 21 16 0 5 8 9 18 7 9 -2 16 2
15 8 -1 8 6 10 19 6 14 -3 19 -1 14 6 -5 8 -2 10 8 6 9 -3 16 -1 16 6 0 6 4 8
10 5 18 -11 38 9 30 29 -4 14 -9 16 -14 8z"/>
<path d="M2720 3298 c0 -9 645 -9 740 1 36 3 -116 6 -337 6 -222 0 -403 -3
-403 -7z"/>
<path d="M3613 3293 c9 -2 25 -2 35 0 9 3 1 5 -18 5 -19 0 -27 -2 -17 -5z"/>
<path d="M3888 3293 c7 -3 16 -2 19 1 4 3 -2 6 -13 5 -11 0 -14 -3 -6 -6z"/>
<path d="M4003 3293 c9 -2 25 -2 35 0 9 3 1 5 -18 5 -19 0 -27 -2 -17 -5z"/>
<path d="M4510 3260 c0 -5 7 -10 16 -10 8 0 12 5 9 10 -3 6 -10 10 -16 10 -5
0 -9 -4 -9 -10z"/>
<path d="M4701 3143 c-6 -10 -11 -12 -11 -5 0 6 -5 12 -11 12 -8 0 -8 -5 1
-15 7 -8 22 -15 34 -15 15 0 17 -3 7 -9 -9 -6 -10 -11 -3 -15 6 -4 16 2 21 12
8 15 6 23 -8 36 -18 16 -20 16 -30 -1z"/>
<path d="M4786 3024 c18 -15 18 -15 0 -10 -16 6 -17 4 -6 -9 10 -12 16 -13 28
-3 10 8 13 8 9 2 -4 -7 0 -17 8 -24 20 -16 19 -5 -2 31 -10 16 -26 29 -37 29
-20 0 -20 0 0 -16z"/>
<path d="M4794 2978 c-4 -6 -2 -14 4 -16 7 -2 10 -8 7 -13 -4 -5 2 -6 11 -2
11 4 13 8 6 11 -7 2 -10 8 -7 12 3 5 1 11 -4 14 -5 4 -13 1 -17 -6z"/>
<path d="M3340 2853 c-25 -14 -52 -32 -60 -38 -53 -44 -287 -120 -434 -141
-55 -8 -103 -19 -106 -25 -13 -20 -19 -204 -10 -314 26 -334 155 -577 403
-758 80 -59 225 -137 254 -137 32 0 238 122 320 190 l78 65 -37 3 c-31 3 -46
-4 -100 -46 -76 -59 -188 -127 -234 -142 -29 -10 -41 -8 -86 13 -241 111 -437
335 -503 577 -34 125 -38 163 -39 335 l-1 180 65 6 c141 13 300 68 476 164
l61 33 64 -37 c95 -54 249 -117 304 -124 17 -2 44 -9 60 -16 17 -7 60 -15 97
-18 38 -3 73 -12 79 -19 7 -9 10 -51 7 -118 l-3 -105 27 27 c32 31 34 59 17
176 l-11 74 -87 11 c-166 22 -376 96 -492 173 -31 21 -58 38 -60 38 -2 0 -24
-12 -49 -27z"/>
<path d="M4846 2823 c-6 -14 -5 -15 5 -6 7 7 10 15 7 18 -3 3 -9 -2 -12 -12z"/>
<path d="M3423 2475 c-13 -9 -24 -31 -28 -55 -5 -30 -11 -40 -26 -40 -10 0
-19 -7 -19 -15 0 -8 9 -15 20 -15 16 0 20 -7 20 -35 0 -28 -4 -35 -20 -35 -11
0 -20 -7 -20 -15 0 -8 9 -15 20 -15 15 0 20 -7 20 -25 0 -14 1 -28 3 -32 1 -5
-8 -9 -20 -11 -28 -4 -31 -32 -3 -32 16 0 20 -7 20 -34 0 -25 -5 -35 -20 -39
-11 -3 -20 -10 -20 -16 0 -6 9 -11 20 -11 16 0 20 -7 20 -34 0 -26 -5 -36 -20
-41 -11 -3 -20 -11 -20 -16 0 -5 9 -9 20 -9 16 0 20 -7 20 -34 0 -26 -5 -36
-20 -41 -25 -8 -26 -25 -1 -25 15 0 20 -10 25 -45 4 -24 11 -47 16 -50 17 -11
513 -6 524 5 7 6 12 71 14 153 3 129 2 140 -12 122 -12 -15 -15 -48 -16 -136
0 -97 -3 -118 -16 -123 -9 -3 -116 -6 -239 -6 -240 0 -250 2 -243 52 2 15 11
24 26 26 12 2 22 7 22 12 0 5 -10 10 -22 12 -19 2 -23 9 -23 38 0 29 4 36 23
38 29 4 28 18 -3 26 -21 5 -25 12 -25 41 0 31 3 35 25 35 31 0 33 17 3 22 -19
2 -23 9 -23 38 0 29 4 36 23 38 28 4 24 26 -6 30 -18 3 -22 10 -22 38 0 30 3
34 25 34 32 0 34 27 3 32 -18 2 -24 11 -26 36 -3 29 -1 32 23 32 32 0 29 23
-3 28 -17 3 -22 10 -22 31 0 16 6 33 13 39 19 16 462 15 476 -2 6 -7 11 -48
12 -91 1 -69 3 -76 15 -60 9 12 14 45 14 87 0 56 -4 71 -22 88 -21 19 -34 20
-253 20 -188 0 -234 -3 -252 -15z"/>
<path d="M4060 2387 c-14 -12 -38 -40 -53 -62 -15 -22 -42 -61 -61 -86 l-34
-46 30 -23 30 -22 21 23 c12 13 27 31 32 40 32 53 62 89 73 89 20 0 14 -15
-38 -86 -27 -38 -50 -73 -50 -78 0 -15 49 35 72 74 12 19 30 43 41 54 13 13
17 25 12 40 -7 21 -8 44 -3 81 4 29 -40 31 -72 2z"/>
<path d="M3030 2315 l0 -65 -70 0 -70 0 0 -70 0 -69 68 -3 67 -3 3 -62 3 -63
64 0 64 0 3 63 3 62 68 3 67 3 0 69 0 70 -70 0 -70 0 0 65 0 65 -65 0 -65 0 0
-65z"/>
<path d="M3870 2138 c-13 -18 -48 -66 -78 -105 l-55 -73 29 -22 c16 -13 30
-23 31 -23 3 0 137 177 147 194 3 4 -8 20 -23 35 l-29 27 -22 -33z"/>
<path d="M4871 2124 c0 -11 3 -14 6 -6 3 7 2 16 -1 19 -3 4 -6 -2 -5 -13z"/>
<path d="M4842 1990 c0 -14 2 -19 5 -12 2 6 2 18 0 25 -3 6 -5 1 -5 -13z"/>
<path d="M3714 1903 c-3 -16 -7 -34 -10 -40 -4 -16 -4 -16 34 3 37 18 37 18
15 44 -23 27 -31 25 -39 -7z"/>
<path d="M4836 1905 c-6 -18 2 -45 15 -45 5 0 9 14 9 30 0 32 -14 40 -24 15z"/>
<path d="M4873 1870 c0 -30 2 -43 4 -27 2 15 2 39 0 55 -2 15 -4 2 -4 -28z"/>
<path d="M2263 1302 c-47 -2 -63 -7 -63 -17 0 -10 11 -15 33 -15 38 0 59 -12
57 -31 -1 -8 -2 -56 -1 -106 1 -86 3 -93 21 -93 19 0 20 7 20 104 0 115 3 122
57 117 29 -2 33 1 33 21 0 25 -13 27 -157 20z"/>
<path d="M2668 1303 c-14 -3 -18 -15 -18 -54 l0 -49 -65 0 c-70 0 -66 -4 -69
65 -1 25 -6 31 -29 33 l-27 3 0 -130 0 -131 25 0 c17 0 25 6 26 18 1 9 2 22 4
27 1 6 3 22 3 38 2 27 3 27 67 27 l65 0 0 -55 c0 -52 1 -55 25 -55 l25 0 0
135 c0 74 -3 134 -7 134 -5 -1 -16 -3 -25 -6z"/>
<path d="M2843 1299 c-52 -15 -83 -65 -83 -132 0 -47 4 -61 28 -86 37 -40 76
-54 135 -46 113 16 156 155 72 234 -38 35 -97 47 -152 30z m90 -43 c46 -19 64
-76 39 -126 -33 -67 -107 -75 -143 -16 -32 53 -18 114 32 142 30 17 33 17 72
0z"/>
<path d="M3658 1303 c-17 -3 -46 -25 -77 -59 -27 -30 -54 -54 -60 -54 -7 0
-11 22 -11 55 0 47 -3 55 -19 55 -27 0 -31 -18 -31 -146 l0 -114 25 0 c22 0
25 4 25 33 0 21 8 39 22 51 22 19 22 19 60 -25 21 -24 38 -47 38 -51 0 -5 17
-8 37 -8 l36 0 -20 23 c-11 12 -36 45 -56 73 l-35 51 49 57 c41 49 58 71 47
65 -2 -1 -15 -4 -30 -6z"/>
<path d="M4340 1176 l0 -136 25 0 c24 0 25 3 25 55 l0 56 62 -3 c59 -3 62 -4
63 -28 3 -78 4 -80 30 -80 l25 0 0 130 0 130 -25 0 c-26 0 -28 -5 -27 -67 l0
-33 -64 0 -64 0 0 50 c0 28 -4 50 -9 50 -5 0 -16 3 -25 6 -14 5 -16 -10 -16
-130z"/>
<path d="M3099 1273 c0 -16 -1 -74 -2 -130 -2 -101 -1 -103 21 -103 21 0 22 4
22 74 0 41 4 77 8 80 5 3 20 -18 35 -47 32 -61 51 -87 64 -87 5 0 24 32 43 70
19 39 37 70 42 70 4 0 8 -36 8 -80 0 -79 0 -80 25 -80 l26 0 -3 128 -3 127
-26 3 c-21 2 -28 -3 -42 -35 -23 -51 -67 -123 -75 -123 -4 0 -27 36 -52 80
-35 63 -50 80 -67 80 -18 0 -23 -6 -24 -27z"/>
<path d="M3813 1258 c-17 -35 -66 -148 -90 -205 -3 -9 5 -13 25 -13 23 0 31 5
36 25 6 24 10 25 76 25 66 0 71 -2 80 -25 7 -18 17 -25 36 -25 17 0 24 4 21
13 -3 6 -20 48 -37 92 -18 44 -39 89 -46 100 -8 11 -14 27 -14 37 0 14 -8 18
-33 18 -30 0 -36 -5 -54 -42z m78 -72 c10 -17 19 -34 19 -37 0 -13 -82 -15
-87 -3 -2 7 5 34 18 61 16 36 23 43 27 29 2 -10 13 -33 23 -50z"/>
<path d="M4048 1238 c-2 -35 -2 -93 0 -130 l4 -68 98 0 c91 0 100 2 114 22 22
31 20 60 -5 92 -16 20 -19 30 -10 39 15 15 14 80 -1 95 -8 8 -46 12 -105 12
l-92 0 -3 -62z m147 20 c30 -13 33 -43 6 -58 -11 -5 -38 -10 -60 -10 l-41 0 0
40 c0 39 1 40 35 40 19 0 46 -5 60 -12z m5 -111 c30 -15 37 -49 14 -67 -18
-16 -92 -14 -112 2 -7 6 -10 22 -8 37 2 14 5 29 5 34 2 12 74 8 101 -6z"/>
<path d="M2748 923 c6 -2 18 -2 25 0 6 3 1 5 -13 5 -14 0 -19 -2 -12 -5z"/>
<path d="M2882 860 c0 -19 2 -27 5 -17 2 9 2 25 0 35 -3 9 -5 1 -5 -18z"/>
<path d="M2768 813 c12 -2 32 -2 45 0 12 2 2 4 -23 4 -25 0 -35 -2 -22 -4z"/>
</g>
</svg>
